<?xml version="1.0" encoding="UTF-8"?>
<svg id="Layer_1" data-name="Layer 1" xmlns="http://www.w3.org/2000/svg" viewBox="0 0 1000 1000">
  <defs>
    <style>
      .cls-1 {
        fill: #662d91;
      }

      .cls-2 {
        fill: #231f20;
      }

      .cls-3 {
        fill: #fff;
      }
    </style>
  </defs>
  <path class="cls-1" d="M33.27,131.75l-12.63,576.58s91.25,64.48,129.27,67.34,11.72,115.74,11.72,115.74l82.07-18.23,121.59-91.19,526.54-10.52,90.48-63.13V163.31l-82.07-71.55H106.92l-73.65,39.98Z"/>
  <path class="cls-2" d="M142.56,795.53h-36.46c-48.99,0-105.97-62.04-106.1-111.02V179.03c5.4-55.19,45.62-101.27,100.35-111.91,265.4-4.12,532.19-3.49,797.67-.31,51.84,10.18,92.15,51.87,99.87,104.29,4.18,168.19.66,336.93,1.8,505.32-3.46,62.3-49.91,113.35-112.53,119.17l-505.46.08-15.11,5.95c-46.58,34.83-92.02,71.47-139.25,105.41-18.86,13.56-43.58,38.19-68.09,24.93-6.5-3.52-16.68-16.51-16.68-23.83v-112.61ZM119.54,112.24c-37.35,3.81-66.75,29.64-72.38,66.97l-.18,503.7c4.97,36.12,34.58,63.45,70.66,67.06,25.19,2.52,66.05-9.14,70.29,28.55,3.01,26.69-3.1,59.31-.04,85.91,1.55,13.47,7.47,8.58,15.12,3.72,49.04-31.19,97.62-80.89,146.42-109.59,6.13-3.6,12.76-5.96,19.54-8l508.36-.41c42.39-4.07,72.26-32.19,75.43-75.26V187.05c-3.22-43.66-35.23-73.06-78.58-75.35l-754.65.54Z"/>
  <path class="cls-3" d="M499.79,599.57c-25.98,0-49.79-4.5-71.44-13.47s-40.65-21.48-57.01-37.52c-16.36-16.03-29.1-34.71-38.24-56.04-9.14-21.32-13.71-44.33-13.71-69.03s4.49-48.11,13.47-69.27c8.97-21.17,21.56-39.69,37.76-55.56,16.19-15.88,35.12-28.22,56.77-37.04,21.65-8.82,45.46-13.23,71.44-13.23s48.83,4.41,70.48,13.23c21.65,8.82,40.57,21.17,56.77,37.04,16.19,15.88,28.78,34.48,37.76,55.8,8.97,21.33,13.47,44.5,13.47,69.51s-4.49,47.71-13.47,69.03c-8.98,21.33-21.57,39.93-37.76,55.8-16.2,15.88-35.04,28.31-56.53,37.28-21.49,8.97-44.74,13.47-69.75,13.47ZM498.83,530.3c19.88,0,37.44-4.49,52.68-13.47,15.23-8.98,27.01-21.48,35.36-37.52,8.34-16.03,12.51-34.64,12.51-55.8,0-15.71-2.4-30.07-7.21-43.05-4.81-12.99-11.71-24.21-20.69-33.67-8.98-9.46-19.65-16.67-31.99-21.65-12.35-4.97-25.9-7.46-40.65-7.46-20.53,0-38.33,4.41-53.4,13.23-15.08,8.82-26.78,21.17-35.12,37.04-8.34,15.88-12.51,34.4-12.51,55.56,0,16.04,2.41,30.63,7.22,43.78,4.81,13.15,11.62,24.46,20.45,33.92,8.82,9.46,19.4,16.68,31.75,21.65,12.34,4.98,26.22,7.46,41.61,7.46ZM650.37,620.74l-158.75-158.27,44.26-44.26,158.75,158.75-44.26,43.78Z"/>
</svg>